<?xml version="1.0" encoding="utf-8"?>
<!-- Generator: Adobe Illustrator 24.1.2, SVG Export Plug-In . SVG Version: 6.00 Build 0)  -->
<svg version="1.1" id="Calque_1" xmlns="http://www.w3.org/2000/svg" xmlns:xlink="http://www.w3.org/1999/xlink" x="0px" y="0px"
	 viewBox="0 0 93.7 161.9" style="enable-background:new 0 0 93.7 161.9;" xml:space="preserve">
<style type="text/css">
	.st0{clip-path:url(#SVGID_2_);fill:#575756;}
	.st1{clip-path:url(#SVGID_2_);fill:#B2B2B2;}
	.st2{fill:#FFFFFF;}
	.st3{font-family:'Merel-Bold';}
	.st4{font-size:7.7074px;}
	.st5{font-family:'Merel-Light';}
	.st6{font-size:6.4228px;}
	.st7{font-family:'Merel-Regular';}
	.st8{fill:#878787;}
	.st9{font-family:'Merel-Medium';}
</style>
<g>
	<defs>
		<rect id="SVGID_1_" width="94.6" height="161.9"/>
	</defs>
	<clipPath id="SVGID_2_">
		<use xlink:href="#SVGID_1_"  style="overflow:visible;"/>
	</clipPath>
	<path class="st0" d="M4.3,14.3c-2.4,0-4.3,1.9-4.3,4.3v138.9c0,2.4,1.9,4.3,4.3,4.3h85.2c2.4,0,4.3-1.9,4.3-4.3V18.6
		c0-2.4-1.9-4.3-4.3-4.3H4.3z"/>
	<path class="st1" d="M4.3,0C1.9,0,0,1.9,0,4.3v30.2h93.8V4.3c0-2.4-1.9-4.3-4.3-4.3H4.3z"/>
</g>
<text transform="matrix(1 0 0 1 19.8499 9.9764)" class="st2 st3 st4">Stagiaire Digital </text>
<text transform="matrix(1 0 0 1 29.6688 19.2259)"><tspan x="0" y="0" class="st2 st3 st4">M</tspan><tspan x="7" y="0" class="st2 st3 st4">ar</tspan><tspan x="13.8" y="0" class="st2 st3 st4">k</tspan><tspan x="17.5" y="0" class="st2 st3 st4">eting</tspan></text>
<text transform="matrix(1 0 0 1 24.328 29.4999)"><tspan x="0" y="0" class="st2 st5 st4">C</tspan><tspan x="5.5" y="0" class="st2 st5 st4">omparaBUS</tspan></text>
<text transform="matrix(1 0 0 1 3.2118 56.8421)" class="st2 st3 st6">Missions :</text>
<text transform="matrix(1 0 0 1 3.2118 67.119)" class="st2 st7 st6">•</text>
<text transform="matrix(1 0 0 1 4.9007 67.119)" class="st2 st7 st6"> </text>
<text transform="matrix(1 0 0 1 7.0658 67.119)" class="st2 st7 st6">Optimisation des contenus </text>
<text transform="matrix(1 0 0 1 7.0658 77.3954)" class="st2 st7 st6">SEO</text>
<text transform="matrix(1 0 0 1 3.2118 87.6717)" class="st2 st7 st6">•</text>
<text transform="matrix(1 0 0 1 4.9007 87.6717)" class="st2 st7 st6"> </text>
<text transform="matrix(1 0 0 1 7.0658 87.6717)" class="st2 st7 st6">Gestion de l’agence éditoriale</text>
<text transform="matrix(1 0 0 1 3.2118 97.9486)" class="st2 st7 st6">•</text>
<text transform="matrix(1 0 0 1 4.9007 97.9486)" class="st2 st7 st6"> </text>
<text transform="matrix(1 0 0 1 7.0658 97.9486)"><tspan x="0" y="0" class="st2 st7 st6">C</tspan><tspan x="4.5" y="0" class="st2 st7 st6">ommunity </tspan><tspan x="33.4" y="0" class="st2 st7 st6">M</tspan><tspan x="39.1" y="0" class="st2 st7 st6">anagement</tspan></text>
<text transform="matrix(1 0 0 1 3.2118 108.225)" class="st2 st7 st6">•</text>
<text transform="matrix(1 0 0 1 4.9007 108.225)" class="st2 st7 st6"> </text>
<text transform="matrix(1 0 0 1 7.0658 108.225)"><tspan x="0" y="0" class="st2 st7 st6">V</tspan><tspan x="3.8" y="0" class="st2 st7 st6">eille stratégique</tspan></text>
<text transform="matrix(1 0 0 1 3.2118 123.64)" class="st2 st3 st6">3 qualités requises :</text>
<text transform="matrix(1 0 0 1 3.2118 133.9164)" class="st2 st7 st6">•</text>
<text transform="matrix(1 0 0 1 4.9007 133.9164)" class="st2 st7 st6"> </text>
<text transform="matrix(1 0 0 1 7.0658 133.9164)" class="st2 st7 st6">Orthographe soignée</text>
<text transform="matrix(1 0 0 1 3.2118 144.1927)" class="st2 st7 st6">•</text>
<text transform="matrix(1 0 0 1 4.9007 144.1927)" class="st2 st7 st6"> </text>
<text transform="matrix(1 0 0 1 7.0658 144.1927)" class="st2 st7 st6">Bonne rédaction</text>
<text transform="matrix(1 0 0 1 3.2118 154.4701)" class="st2 st7 st6">•</text>
<text transform="matrix(1 0 0 1 4.9007 154.4701)" class="st2 st7 st6"> </text>
<text transform="matrix(1 0 0 1 7.0658 154.4701)"><tspan x="0" y="0" class="st2 st7 st6">A</tspan><tspan x="4.3" y="0" class="st2 st7 st6">ddict du digital</tspan></text>
<rect x="0.1" y="34.6" class="st8" width="93.6" height="14.2"/>
<text transform="matrix(1 0 0 1 10.3973 44.2001)"><tspan x="0" y="0" class="st2 st9 st4">M</tspan><tspan x="6.9" y="0" class="st2 st9 st4">ars </tspan><tspan x="18.6" y="0" class="st2 st9 st4">2</tspan><tspan x="22.6" y="0" class="st2 st9 st4">019 à </tspan><tspan x="42.3" y="0" class="st2 st9 st4">M</tspan><tspan x="49.2" y="0" class="st2 st9 st4">ai </tspan><tspan x="56.6" y="0" class="st2 st9 st4">2</tspan><tspan x="60.6" y="0" class="st2 st9 st4">019</tspan></text>
</svg>
