<?xml version="1.0" encoding="utf-8"?>
<!-- Generator: Adobe Illustrator 24.1.2, SVG Export Plug-In . SVG Version: 6.00 Build 0)  -->
<svg version="1.1" id="Calque_1" xmlns="http://www.w3.org/2000/svg" xmlns:xlink="http://www.w3.org/1999/xlink" x="0px" y="0px"
	 viewBox="0 0 93.7 161.9" style="enable-background:new 0 0 93.7 161.9;" xml:space="preserve">
<style type="text/css">
	.st0{fill:#FFFFFF;}
	.st1{font-family:'Merel-Bold';}
	.st2{font-size:7.7074px;}
	.st3{font-family:'Merel-Regular';}
	.st4{font-size:6.4228px;}
	.st5{clip-path:url(#SVGID_2_);fill:#575756;}
	.st6{clip-path:url(#SVGID_2_);fill:#B2B2B2;}
	.st7{font-size:7.6986px;}
	.st8{font-family:'Merel-Light';}
	.st9{font-size:6.4155px;}
	.st10{fill:#878787;}
	.st11{font-family:'Merel-Medium';}
</style>
<text transform="matrix(1 0 0 1 19.8499 9.9764)" class="st0 st1 st2">Stagiaire Digital </text>
<text transform="matrix(1 0 0 1 3.2118 154.4701)" class="st0 st3 st4">•</text>
<text transform="matrix(1 0 0 1 4.9007 154.4701)" class="st0 st3 st4"> </text>
<text transform="matrix(1 0 0 1 7.0658 154.4701)"><tspan x="0" y="0" class="st0 st3 st4">A</tspan><tspan x="4.3" y="0" class="st0 st3 st4">ddict du digital</tspan></text>
<g>
	<defs>
		<rect id="SVGID_1_" y="0.1" width="93.7" height="161.7"/>
	</defs>
	<clipPath id="SVGID_2_">
		<use xlink:href="#SVGID_1_"  style="overflow:visible;"/>
	</clipPath>
	<path class="st5" d="M4.3,14.4c-2.4,0-4.3,1.9-4.3,4.3v138.8c0,2.4,1.9,4.3,4.3,4.3h85.1c2.4,0,4.3-1.9,4.3-4.3V18.7
		c0-2.4-1.9-4.3-4.3-4.3H4.3z"/>
	<path class="st6" d="M4.3,0.1C1.9,0.1,0,2,0,4.4v30.2h93.7V4.4c0-2.4-1.9-4.3-4.3-4.3H4.3z"/>
</g>
<text transform="matrix(1 0 0 1 14.3182 9.6942)"><tspan x="0" y="0" class="st0 st1 st7">R</tspan><tspan x="4.7" y="0" class="st0 st1 st7">unner/responsable </tspan></text>
<text transform="matrix(1 0 0 1 34.1737 18.9335)"><tspan x="0" y="0" class="st0 st1 st7">bu</tspan><tspan x="8.1" y="0" class="st0 st1 st7">v</tspan><tspan x="11.9" y="0" class="st0 st1 st7">e</tspan><tspan x="15.8" y="0" class="st0 st1 st7">t</tspan><tspan x="18.6" y="0" class="st0 st1 st7">te</tspan></text>
<text transform="matrix(1 0 0 1 28.1834 29.1952)" class="st0 st8 st7">DIGIFOOD</text>
<text transform="matrix(1 0 0 1 3.1024 56.87)" class="st0 st1 st9">Missions :</text>
<text transform="matrix(1 0 0 1 3.1024 64.5682)" class="st0 st3 st9">•</text>
<text transform="matrix(1 0 0 1 4.7889 64.5682)" class="st0 st3 st9"> </text>
<text transform="matrix(1 0 0 1 6.95 64.5682)" class="st0 st3 st9">Service de livraison à la place </text>
<text transform="matrix(1 0 0 1 6.95 72.2684)"><tspan x="0" y="0" class="st0 st3 st9">au parc des </tspan><tspan x="32.2" y="0" class="st0 st3 st9">P</tspan><tspan x="36" y="0" class="st0 st3 st9">rinces pendant </tspan></text>
<text transform="matrix(1 0 0 1 6.95 79.9657)"><tspan x="0" y="0" class="st0 st3 st9">les matchs de la </tspan><tspan x="43.7" y="0" class="st0 st3 st9">C</tspan><tspan x="48.2" y="0" class="st0 st3 st9">oupe du </tspan></text>
<text transform="matrix(1 0 0 1 6.95 87.6639)"><tspan x="0" y="0" class="st0 st3 st9">M</tspan><tspan x="5.7" y="0" class="st0 st3 st9">onde </tspan><tspan x="20.5" y="0" class="st0 st3 st9">F</tspan><tspan x="23.9" y="0" class="st0 st3 st9">éminine</tspan></text>
<text transform="matrix(1 0 0 1 3.1024 126.1581)" class="st0 st1 st9">3 qualités requises :</text>
<text transform="matrix(1 0 0 1 3.1024 136.4227)" class="st0 st3 st9">•</text>
<text transform="matrix(1 0 0 1 4.7889 136.4227)" class="st0 st3 st9"> </text>
<text transform="matrix(1 0 0 1 6.95 136.4227)" class="st0 st3 st9">Encadrement d’une équipe</text>
<text transform="matrix(1 0 0 1 3.1024 146.6869)" class="st0 st3 st9">•</text>
<text transform="matrix(1 0 0 1 4.7889 146.6869)" class="st0 st3 st9"> </text>
<text transform="matrix(1 0 0 1 6.95 146.6869)" class="st0 st3 st9">Gestion de stress</text>
<text transform="matrix(1 0 0 1 3.1024 156.9525)" class="st0 st3 st9">•</text>
<text transform="matrix(1 0 0 1 4.7889 156.9525)" class="st0 st3 st9"> </text>
<text transform="matrix(1 0 0 1 6.95 156.9525)" class="st0 st3 st9">Dynamique</text>
<rect y="34.6" class="st10" width="93.5" height="14.2"/>
<text transform="matrix(1 0 0 1 17.9188 43.8895)"><tspan x="0" y="0" class="st0 st11 st7">Juin à Juillet </tspan><tspan x="41.2" y="0" class="st0 st11 st7">2</tspan><tspan x="45.2" y="0" class="st0 st11 st7">019</tspan></text>
</svg>
