<?xml version="1.0" encoding="utf-8"?>
<!-- Generator: Adobe Illustrator 24.1.2, SVG Export Plug-In . SVG Version: 6.00 Build 0)  -->
<svg version="1.1" id="Calque_1" xmlns="http://www.w3.org/2000/svg" xmlns:xlink="http://www.w3.org/1999/xlink" x="0px" y="0px"
	 viewBox="0 0 93.7 161.9" style="enable-background:new 0 0 93.7 161.9;" xml:space="preserve">
<style type="text/css">
	.st0{clip-path:url(#SVGID_2_);fill:#575756;}
	.st1{clip-path:url(#SVGID_2_);fill:#B2B2B2;}
	.st2{fill:#FFFFFF;}
	.st3{font-family:'Merel-Regular';}
	.st4{font-size:6.4228px;}
	.st5{fill:#878787;}
	.st6{font-family:'Merel-Bold';}
	.st7{font-size:7.6412px;}
	.st8{font-family:'Merel-Light';}
	.st9{font-size:6.3677px;}
	.st10{font-family:'Merel-Medium';}
</style>
<g>
	<defs>
		<rect id="SVGID_1_" width="94.6" height="161.9"/>
	</defs>
	<clipPath id="SVGID_2_">
		<use xlink:href="#SVGID_1_"  style="overflow:visible;"/>
	</clipPath>
	<path class="st0" d="M4.3,14.3c-2.4,0-4.3,1.9-4.3,4.3v138.9c0,2.4,1.9,4.3,4.3,4.3h85.2c2.4,0,4.3-1.9,4.3-4.3V18.6
		c0-2.4-1.9-4.3-4.3-4.3H4.3z"/>
	<path class="st1" d="M4.3,0C1.9,0,0,1.9,0,4.3v30.2h93.8V4.3c0-2.4-1.9-4.3-4.3-4.3H4.3z"/>
</g>
<text transform="matrix(1 0 0 1 4.9007 87.6717)" class="st2 st3 st4"> </text>
<text transform="matrix(1 0 0 1 4.9007 97.9486)" class="st2 st3 st4"> </text>
<text transform="matrix(1 0 0 1 4.9007 108.225)" class="st2 st3 st4"> </text>
<text transform="matrix(1 0 0 1 4.9007 133.9164)" class="st2 st3 st4"> </text>
<text transform="matrix(1 0 0 1 4.9007 154.4701)" class="st2 st3 st4"> </text>
<rect x="0.1" y="34.6" class="st5" width="93.6" height="14.2"/>
<g>
	<text transform="matrix(1 0 0 1 31.131 9.4378)" class="st2 st6 st7">Assistant </text>
	<text transform="matrix(1 0 0 1 20.5323 18.6068)"><tspan x="0" y="0" class="st2 st6 st7">C</tspan><tspan x="5.3" y="0" class="st2 st6 st7">ommunication</tspan></text>
	<text transform="matrix(1 0 0 1 35.3566 28.7928)"><tspan x="0" y="0" class="st2 st8 st7">STI</tspan><tspan x="10.6" y="0" class="st2 st8 st7">V</tspan><tspan x="15.5" y="0" class="st2 st8 st7">O</tspan></text>
	<text transform="matrix(1 0 0 1 2.8273 55.053)" class="st2 st6 st9">Missions :</text>
	<text transform="matrix(1 0 0 1 2.8273 65.241)" class="st2 st3 st9">•</text>
	<text transform="matrix(1 0 0 1 4.5016 65.241)" class="st2 st3 st9"> </text>
	<text transform="matrix(1 0 0 1 6.6481 65.241)"><tspan x="0" y="0" class="st2 st3 st9">Gestion d’</tspan><tspan x="27" y="0" class="st2 st3 st9">év</tspan><tspan x="33.3" y="0" class="st2 st3 st9">énements</tspan></text>
	<text transform="matrix(1 0 0 1 2.8273 75.4295)" class="st2 st3 st9">•</text>
	<text transform="matrix(1 0 0 1 4.5016 75.4295)" class="st2 st3 st9"> </text>
	<text transform="matrix(1 0 0 1 6.6481 75.4295)"><tspan x="0" y="0" class="st2 st3 st9">C</tspan><tspan x="4.5" y="0" class="st2 st3 st9">réation et édition de photos/</tspan></text>
	<text transform="matrix(1 0 0 1 6.6481 83.0701)"><tspan x="0" y="0" class="st2 st3 st9">vidéos</tspan><tspan x="17.4" y="0" class="st2 st3 st9"> </tspan><tspan x="18.7" y="0" class="st2 st3 st9">(bannières</tspan><tspan x="46.4" y="0" class="st2 st3 st9"> </tspan><tspan x="47.8" y="0" class="st2 st3 st9">pour</tspan><tspan x="60.4" y="0" class="st2 st3 st9"> </tspan><tspan x="61.8" y="0" class="st2 st3 st9">réseaux </tspan></text>
	<text transform="matrix(1 0 0 1 6.6481 90.7108)"><tspan x="0" y="0" class="st2 st3 st9">sociaux, a</tspan><tspan x="25.8" y="0" class="st2 st3 st9">f</tspan><tspan x="27.9" y="0" class="st2 st3 st9">f</tspan><tspan x="30.1" y="0" class="st2 st3 st9">iches)</tspan></text>
	<text transform="matrix(1 0 0 1 2.8273 100.8983)" class="st2 st3 st9">•</text>
	<text transform="matrix(1 0 0 1 4.5016 100.8983)" class="st2 st3 st9"> </text>
	<text transform="matrix(1 0 0 1 6.6481 100.8983)"><tspan x="0" y="0" class="st2 st3 st9">C</tspan><tspan x="4.5" y="0" class="st2 st3 st9">ontrôle de con</tspan><tspan x="43.3" y="0" class="st2 st3 st9">f</tspan><tspan x="45.5" y="0" class="st2 st3 st9">ormité des </tspan></text>
	<text transform="matrix(1 0 0 1 6.6481 111.0877)" class="st2 st3 st9">documents</text>
	<text transform="matrix(1 0 0 1 2.8273 126.3699)" class="st2 st6 st9">3 qualités requises :</text>
	<text transform="matrix(1 0 0 1 2.8273 136.5584)" class="st2 st3 st9">•</text>
	<text transform="matrix(1 0 0 1 4.5016 136.5584)" class="st2 st3 st9"> </text>
	<text transform="matrix(1 0 0 1 6.6481 136.5584)"><tspan x="0" y="0" class="st2 st3 st9">O</tspan><tspan x="5.1" y="0" class="st2 st3 st9">r</tspan><tspan x="7.6" y="0" class="st2 st3 st9">ganisation</tspan></text>
	<text transform="matrix(1 0 0 1 2.8273 146.7444)" class="st2 st3 st9">•</text>
	<text transform="matrix(1 0 0 1 4.5016 146.7444)" class="st2 st3 st9"> </text>
	<text transform="matrix(1 0 0 1 6.6481 146.7444)"><tspan x="0" y="0" class="st2 st3 st9">R</tspan><tspan x="4" y="0" class="st2 st3 st9">igoureux</tspan></text>
	<text transform="matrix(1 0 0 1 2.8273 156.9329)" class="st2 st3 st9">•</text>
	<text transform="matrix(1 0 0 1 4.5016 156.9329)" class="st2 st3 st9"> </text>
	<text transform="matrix(1 0 0 1 6.6481 156.9329)" class="st2 st3 st9">À l’écoute</text>
	<text transform="matrix(1 0 0 1 7.6609 44.26)" class="st2 st10 st7">Sept. 2019 à Sept. 2020</text>
</g>
</svg>
