<?xml version="1.0" encoding="utf-8"?>
<!-- Generator: Adobe Illustrator 24.1.2, SVG Export Plug-In . SVG Version: 6.00 Build 0)  -->
<svg version="1.1" id="Calque_1" xmlns="http://www.w3.org/2000/svg" xmlns:xlink="http://www.w3.org/1999/xlink" x="0px" y="0px"
	 viewBox="0 0 297 43.6" style="enable-background:new 0 0 297 43.6;" xml:space="preserve">
<style type="text/css">
	.st0{clip-path:url(#SVGID_2_);fill:none;stroke:#000000;stroke-width:0.8866;}
	.st1{fill:none;stroke:#000000;stroke-width:0.4433;}
	.st2{fill:#575756;}
	.st3{fill:#878787;}
	.st4{fill:#B2B2B2;}
	.st5{fill:#FFFFFF;}
	.st6{font-family:'Montserrat-Regular';}
	.st7{font-size:3.4331px;}
	.st8{text-align:center;}
</style>
<g>
	<g>
		<defs>
			<rect id="SVGID_1_" x="13.7" width="269.5" height="43.6"/>
		</defs>
		<clipPath id="SVGID_2_">
			<use xlink:href="#SVGID_1_"  style="overflow:visible;"/>
		</clipPath>
		<path class="st0" d="M21.6,22.6c0,0,45.8-6.1,128.1,0s124-3.7,124-4.1"/>
	</g>
	<line class="st1" x1="37.6" y1="21" x2="37.6" y2="27.1"/>
	<line class="st1" x1="78.4" y1="13.7" x2="78.4" y2="19.8"/>
	<line class="st1" x1="92.3" y1="19.6" x2="92.3" y2="25.7"/>
	<line class="st1" x1="25.6" y1="16.4" x2="25.6" y2="22.5"/>
	<line class="st1" x1="115.8" y1="14.8" x2="115.8" y2="20.9"/>
	<line class="st1" x1="152.6" y1="22.7" x2="152.6" y2="28.8"/>
	<line class="st1" x1="159" y1="17.4" x2="159" y2="23.6"/>
	<line class="st1" x1="188.8" y1="24.4" x2="188.9" y2="30.5"/>
	<line class="st1" x1="198.5" y1="18.4" x2="198.5" y2="24.5"/>
	<line class="st1" x1="223.5" y1="23.8" x2="223.5" y2="29.9"/>
	<line class="st1" x1="243.2" y1="16.4" x2="243.2" y2="22.5"/>
	<line class="st1" x1="263.2" y1="20.2" x2="263.2" y2="26.4"/>
	<rect x="13.7" y="8.1" class="st2" width="32.5" height="7.2"/>
	<rect x="58" class="st3" width="40.3" height="13"/>
	<rect x="102.4" y="0.7" class="st3" width="27" height="13"/>
	<rect x="185" y="4.3" class="st4" width="27" height="13"/>
	<rect x="246.1" y="27.8" class="st4" width="34.2" height="11.4"/>
	<rect x="208.7" y="30.6" class="st4" width="29.6" height="13"/>
	<rect x="136.1" y="29.7" class="st4" width="33" height="13"/>
	<rect x="144.2" y="8.7" class="st4" width="29.6" height="7.6"/>
	<rect x="177.4" y="31.6" class="st4" width="23" height="7.6"/>
	<rect x="230.3" y="4.3" class="st4" width="28.3" height="11.2"/>
	<rect x="72.1" y="26.6" class="st3" width="40.3" height="7.1"/>
	<rect x="20.1" y="28.2" class="st2" width="33" height="12"/>
	<text transform="matrix(1 0 0 1 15.3459 12.9006)" class="st5 st6 st7">Ouvrier viticole</text>
	<text transform="matrix(1 0 0 1 59.3791 5.1598)"><tspan x="0" y="0" class="st5 st6 st7">A</tspan><tspan x="3" y="0" class="st5 st6 st7">gent poly</tspan><tspan x="20.4" y="0" class="st5 st6 st7">v</tspan><tspan x="22.6" y="0" class="st5 st6 st7">alent de </tspan></text>
	<text transform="matrix(1 0 0 1 66.552 10.4802)" class="st5 st6 st7">restauration</text>
	<text transform="matrix(1 0 0 1 104.1545 5.9802)"><tspan x="0" y="0" class="st5 st6 st7">A</tspan><tspan x="3" y="0" class="st5 st6 st7">uxiliaire de </tspan></text>
	<text transform="matrix(1 0 0 1 107.2082 11.3)"><tspan x="0" y="0" class="st5 st6 st7">v</tspan><tspan x="2.2" y="0" class="st5 st6 st7">acances</tspan></text>
	<text transform="matrix(1 0 0 1 187.1106 9.2604)"><tspan x="0" y="0" class="st5 st6 st7">A</tspan><tspan x="3" y="0" class="st5 st6 st7">uxiliaire de </tspan></text>
	<text transform="matrix(1 0 0 1 190.1643 14.5807)"><tspan x="0" y="0" class="st5 st6 st7">v</tspan><tspan x="2.2" y="0" class="st5 st6 st7">acances</tspan></text>
	<text transform="matrix(1 0 0 1 254.6047 31.8078)" class="st5 st6 st7">Assistant </text>
	<text transform="matrix(1 0 0 1 248.2258 37.1276)"><tspan x="0" y="0" class="st5 st6 st7">C</tspan><tspan x="3.1" y="0" class="st5 st6 st7">ommunication</tspan></text>
	<text transform="matrix(1 0 0 1 217.469 35.8815)"><tspan x="0" y="0" class="st5 st6 st7">A</tspan><tspan x="3" y="0" class="st5 st6 st7">gent </tspan></text>
	<text transform="matrix(1 0 0 1 209.6926 41.2009)"><tspan x="0" y="0" class="st5 st6 st7">d’in</tspan><tspan x="6.5" y="0" class="st5 st6 st7">f</tspan><tspan x="8.1" y="0" class="st5 st6 st7">ormations</tspan></text>
	<text transform="matrix(1 0 0 1 137.6506 34.968)" class="st5 st6 st7">Stagiaire Digital </text>
	<text transform="matrix(1 0 0 1 143.0539 40.2878)"><tspan x="0" y="0" class="st5 st6 st7">M</tspan><tspan x="3.9" y="0" class="st5 st6 st7">ar</tspan><tspan x="7.8" y="0" class="st5 st6 st7">k</tspan><tspan x="9.9" y="0" class="st5 st6 st7">eting</tspan></text>
	<text transform="matrix(1 0 0 1 145.635 13.694)" class="st5 st6 st7">Hôte d’accueil</text>
	<text transform="matrix(1 0 0 1 179.4983 36.5554)"><tspan x="0" y="0" class="st5 st6 st7">I</tspan><tspan x="1.1" y="0" class="st5 st6 st7">nv</tspan><tspan x="5.5" y="0" class="st5 st6 st7">entaire</tspan></text>
	<text transform="matrix(1 0 0 1 232.8508 8.6711)"><tspan x="0" y="0" class="st5 st6 st7">R</tspan><tspan x="2.7" y="0" class="st5 st6 st7">esponsable</tspan></text>
	<text transform="matrix(1 0 0 1 237.2532 13.9904)"><tspan x="0" y="0" class="st5 st6 st7">bu</tspan><tspan x="4.6" y="0" class="st5 st6 st7">v</tspan><tspan x="6.8" y="0" class="st5 st6 st7">e</tspan><tspan x="9.1" y="0" class="st5 st6 st7">t</tspan><tspan x="10.6" y="0" class="st5 st6 st7">te</tspan></text>
	<text transform="matrix(1 0 0 1 74.9182 31.1476)"><tspan x="0" y="0" class="st5 st6 st7">C</tspan><tspan x="3.1" y="0" class="st5 st6 st7">onseiller </tspan><tspan x="19.7" y="0" class="st5 st6 st7">v</tspan><tspan x="21.9" y="0" class="st5 st6 st7">endeur</tspan></text>
	<text transform="matrix(1 0 0 1 21.3127 32.4548)"><tspan x="0" y="0" class="st5 st6 st7">A</tspan><tspan x="3" y="0" class="st5 st6 st7">gent d’espaces </tspan></text>
	<text transform="matrix(1 0 0 1 31.7522 37.7741)"><tspan x="0" y="0" class="st5 st6 st7">v</tspan><tspan x="2.2" y="0" class="st5 st6 st7">erts</tspan></text>
</g>
</svg>
