<?xml version="1.0" encoding="utf-8"?>
<!-- Generator: Adobe Illustrator 24.1.2, SVG Export Plug-In . SVG Version: 6.00 Build 0)  -->
<svg version="1.1" id="Layer_1" xmlns="http://www.w3.org/2000/svg" xmlns:xlink="http://www.w3.org/1999/xlink" x="0px" y="0px"
	 viewBox="0 0 477.9 477.9" style="enable-background:new 0 0 477.9 477.9;" xml:space="preserve">
<style type="text/css">
	.st0{fill:#FFFFFF;}
</style>
<g>
	<g>
		<path class="st0" d="M317.2,76.3c-17.4-26.3-46.7-42.1-78.2-42.2c-51.8,0-93.8,42.1-93.8,94c0,31.4,15.8,60.7,41.9,78.1
			c0.7,0.5,1.4,0.9,2.1,1.3c14.9,9.4,32.1,14.4,49.7,14.4c17.4,0,34.4-4.8,49.1-14.1l2.6-1.5C333.8,177.8,345.7,119.5,317.2,76.3z"
			/>
	</g>
</g>
<g>
	<g>
		<path class="st0" d="M359.4,285.6v-0.7c-14.6-26.9-37.7-48.2-65.8-60.3c-33.8,18.8-74.9,18.8-108.6,0
			c-28.1,12.2-51.3,33.4-65.9,60.3v0.7c-10.9,19.7-16.6,41.8-16.7,64.3v93.9h273.1v-93.9C375.6,327.4,370,305.4,359.4,285.6z"/>
	</g>
</g>
<g>
	<g>
		<path class="st0" d="M461.5,163.2c-8-11.3-21-18.1-34.8-18.1c-23.6,0-42.6,19.2-42.6,42.7c0,13.9,6.8,26.9,18.1,34.8
			c14.8,10.1,34.2,10.1,49,0C470.4,209.1,475.1,182.5,461.5,163.2z"/>
	</g>
</g>
<g>
	<g>
		<path class="st0" d="M456.1,239.7c-18.3,10.2-40.6,10.2-59,0c-13,9.2-21,23.9-21.7,39.9c11.2,21.7,17.1,45.9,17.1,70.3v8.5h85.3
			v-76.8C477.9,264.9,469.8,249.3,456.1,239.7z"/>
	</g>
</g>
<g>
	<g>
		<path class="st0" d="M86,163.2c-8-11.3-21-18.1-34.8-18.1c-23.6,0-42.6,19.2-42.6,42.7c0,13.9,6.8,26.9,18.1,34.8
			c14.8,10.1,34.2,10.1,49,0C95,209.1,99.6,182.5,86,163.2z"/>
	</g>
</g>
<g>
	<g>
		<path class="st0" d="M80.7,239.7c-18.3,10.2-40.6,10.2-59,0C8.1,249.3,0,264.9,0,281.6v76.8h85.3v-8.5c0-24.5,5.9-48.6,17.1-70.3
			C101.8,263.6,93.8,248.9,80.7,239.7z"/>
	</g>
</g>
</svg>
